<?xml version="1.0" encoding="UTF-8" standalone="no"?>
<!-- Generator: Adobe Illustrator 23.0.3, SVG Export Plug-In . SVG Version: 6.00 Build 0)  -->

<svg
   xmlns:dc="http://purl.org/dc/elements/1.1/"
   xmlns:cc="http://creativecommons.org/ns#"
   xmlns:rdf="http://www.w3.org/1999/02/22-rdf-syntax-ns#"
   xmlns:svg="http://www.w3.org/2000/svg"
   xmlns="http://www.w3.org/2000/svg"
   xmlns:sodipodi="http://sodipodi.sourceforge.net/DTD/sodipodi-0.dtd"
   xmlns:inkscape="http://www.inkscape.org/namespaces/inkscape"
   version="1.1"
   id="Layer_1"
   x="0px"
   y="0px"
   viewBox="0 0 264 280"
   style="enable-background:new 0 0 264 280;"
   xml:space="preserve"
   sodipodi:docname="avataaars.svg"
   inkscape:version="0.92.4 (5da689c313, 2019-01-14)"><metadata
   id="metadata183"><rdf:RDF><cc:Work
       rdf:about=""><dc:format>image/svg+xml</dc:format><dc:type
         rdf:resource="http://purl.org/dc/dcmitype/StillImage" /></cc:Work></rdf:RDF></metadata><defs
   id="defs181" /><sodipodi:namedview
   pagecolor="#ffffff"
   bordercolor="#666666"
   borderopacity="1"
   objecttolerance="10"
   gridtolerance="10"
   guidetolerance="10"
   inkscape:pageopacity="0"
   inkscape:pageshadow="2"
   inkscape:window-width="1920"
   inkscape:window-height="1050"
   id="namedview179"
   showgrid="false"
   inkscape:zoom="1.19198"
   inkscape:cx="174.79906"
   inkscape:cy="42.270232"
   inkscape:window-x="0"
   inkscape:window-y="0"
   inkscape:window-maximized="1"
   inkscape:current-layer="Layer_1" />
<style
   type="text/css"
   id="style2">
	.st0{fill-rule:evenodd;clip-rule:evenodd;fill:#E6E6E6;}
	.st1{filter:url(#Adobe_OpacityMaskFilter);}
	.st2{fill-rule:evenodd;clip-rule:evenodd;fill:#FFFFFF;}
	.st3{mask:url(#mask-2_1_);}
	.st4{fill-rule:evenodd;clip-rule:evenodd;fill:#2C3E50;}
	.st5{filter:url(#Adobe_OpacityMaskFilter_1_);}
	.st6{mask:url(#mask-4_1_);}
	.st7{fill-rule:evenodd;clip-rule:evenodd;fill:#D0C6AC;}
	.st8{filter:url(#Adobe_OpacityMaskFilter_2_);}
	.st9{mask:url(#mask-6_1_);}
	.st10{fill-rule:evenodd;clip-rule:evenodd;fill:#EDB98A;}
	.st11{filter:url(#Adobe_OpacityMaskFilter_3_);}
	.st12{mask:url(#mask-6_2_);fill-rule:evenodd;clip-rule:evenodd;fill-opacity:0.1;}
	.st13{filter:url(#Adobe_OpacityMaskFilter_4_);}
	.st14{mask:url(#react-mask-952_1_);}
	.st15{filter:url(#Adobe_OpacityMaskFilter_5_);}
	.st16{opacity:0.6;mask:url(#react-mask-952_2_);}
	.st17{fill-rule:evenodd;clip-rule:evenodd;fill-opacity:0.16;}
	.st18{fill-rule:evenodd;clip-rule:evenodd;fill-opacity:0.7;}
	.st19{filter:url(#Adobe_OpacityMaskFilter_6_);}
	.st20{mask:url(#react-mask-934_1_);fill-rule:evenodd;clip-rule:evenodd;fill:#FFFFFF;}
	.st21{filter:url(#Adobe_OpacityMaskFilter_7_);}
	.st22{mask:url(#react-mask-934_2_);}
	.st23{fill-rule:evenodd;clip-rule:evenodd;fill:#FF4F6D;}
	.st24{fill-rule:evenodd;clip-rule:evenodd;fill-opacity:0.6;}
	.st25{filter:url(#Adobe_OpacityMaskFilter_8_);}
	.st26{mask:url(#react-mask-925_1_);}
	.st27{fill-rule:evenodd;clip-rule:evenodd;fill:#28354B;}
	.st28{filter:url(#Adobe_OpacityMaskFilter_9_);}
	.st29{mask:url(#react-mask-924_1_);}
	.st30{fill-rule:evenodd;clip-rule:evenodd;fill:#4A312C;}
</style>
<desc
   id="desc4">Created with getavataaars.com</desc>

<g
   inkscape:export-ydpi="96"
   inkscape:export-xdpi="96"
   inkscape:export-filename="/mnt/LABELS/jaigansa/Export/icons/jaigansa-icon-fav.png"
   id="logo-6"
   style="fill:#9100ff;fill-opacity:1"
   transform="matrix(0.33333333,0,0,0.33333333,-34.666665,-26.666665)"><path
     sodipodi:nodetypes="cccccccccccccccccccccccccccccccccccccccc"
     id="path12"
     d="m 350,200 c -82.84271,0 -150,67.15729 -150,150 v 150 c 0,82.84271 67.15729,150 150,150 40.41067,-0.007 79.10928,-16.31794 107.33203,-45.24023 -13.97847,-9.48081 -44.23334,-32.82658 -58.57226,-65.64063 -18.9929,-43.46457 -35.2459,-111.58231 10.41015,-155.04687 -7.67021,-0.36525 -14.42773,9.13085 -14.42773,9.13085 0,0 3.71725,-10.84031 17.24448,-12.60156 0.15337,-6.88708 -21.11028,-3.56582 -22.5355,-18.57226 2.8336,11.05371 21.56879,7.73295 27.02344,12.91211 -4.38297,-9.67908 38.42604,-66.35434 137.60156,-57.05664 -12.61384,-3.56467 -14.98016,-11.04056 -14.98016,-11.04056 0,0 7.2316,9.87844 25.18133,9.87845 17.94973,0 79.74654,10.91895 94.53907,36.12109 3.28725,-0.54787 -6.8917,-12.62296 -3.64258,-17.56445 -0.24892,13.76442 53.93425,57.4378 15.51562,79.88867 -3.59622,0.95469 -8.08506,-8.99288 -8.08984,-12.52539 -0.59577,4.59779 5.62165,14.36326 5.62305,14.11914 0,0 3.74388,17.71405 10.31836,25.6582 6.57447,7.94414 6.93999,20.90993 4.83984,27.11914 -2.10022,6.20921 -2.46661,14.97564 7.12109,26.20703 9.58779,11.23139 16.34464,25.47542 19.08399,30.04102 2.73939,4.56561 8.39498,14.6928 0.18359,20.72851 -8.13239,5.97763 -12.47351,6.30514 -14.51953,6.93946 -1.09568,0.0913 -4.15358,1.41496 -3.46875,3.42383 0.68484,2.00884 0.56623,10.60846 4.92383,13.72265 1.81179,7.31732 -4.63682,11.43731 -6.58594,13.10742 4.6488,2.13072 7.55352,11.49454 6.00391,14.59375 -1.5496,3.09923 -12.65355,10.00701 -14.20313,18.20704 -1.54966,8.20008 -8.00775,23.82472 -13.56054,27.95703 -3.52375,2.62229 -9.80871,5.5196 -18.35938,5.52148 V 650 c -82.84272,0 -150,67.15729 -150,150 h 150 c 82.84271,0 150,-67.15729 150,-150 0,-100 0,-200 0,-300 0,-82.84271 -67.15729,-150.00003 -150,-150 H 350.17773 Z"
     inkscape:connector-curvature="0"
     style="fill:#9100ff;fill-opacity:1" /></g></svg>